<svg width="64" height="64" viewBox="0 0 64 64" fill="none" xmlns="http://www.w3.org/2000/svg">
<path d="M32 64C49.6731 64 64 49.6731 64 32C64 14.3269 49.6731 0 32 0C14.3269 0 0 14.3269 0 32C0 49.6731 14.3269 64 32 64Z" fill="#50B748"/>
<path d="M38.724 63.2446C39.3407 63.1256 39.9538 62.9883 40.5625 62.8332C41.5891 62.5471 42.6008 62.2098 43.5938 61.8228C44.5888 61.4377 45.564 61.0031 46.5156 60.5207C47.467 60.0361 48.3935 59.5042 49.2917 58.9269C50.1884 58.3508 51.0558 57.7302 51.8906 57.0675C52.7275 56.4033 53.5306 55.6976 54.2969 54.953C55.0611 54.2102 55.7877 53.4297 56.474 52.6144C57.1619 51.7983 57.8085 50.9483 58.4115 50.0675C59.0138 49.188 59.5718 48.2789 60.0834 47.3436C60.5946 46.4073 61.0587 45.446 61.474 44.4634C61.8902 43.4806 62.257 42.4776 62.5729 41.4582C62.8433 40.5642 63.0745 39.6588 63.2656 38.7446L44.2604 19.7394C41.1257 16.6048 36.7944 14.6665 32 14.6665C23.0106 14.6665 15.6412 21.4721 14.7552 30.2238C14.6962 30.8073 14.6667 31.4006 14.6667 31.9998C14.6667 36.7942 16.6049 41.1256 19.7396 44.2603L38.724 63.2446Z" fill="#10A711"/>
<path d="M32 14.6665C41.5887 14.6665 49.3334 22.4113 49.3334 31.9998C49.3334 41.5886 41.5887 49.3332 32 49.3332C22.4113 49.3332 14.6667 41.5886 14.6667 31.9998C14.6667 31.4006 14.6962 30.8072 14.7552 30.2238C15.6412 21.4722 23.0106 14.6665 32 14.6665ZM31.9792 21.3175C31.2828 21.3284 30.6585 21.9701 30.6667 22.6665V30.6665H22.6667C21.9623 30.6565 21.3144 31.2953 21.3144 31.9998C21.3144 32.7043 21.9623 33.3431 22.6667 33.3332H30.6667V41.3332C30.6567 42.0376 31.2955 42.6855 32 42.6855C32.7045 42.6855 33.3433 42.0376 33.3334 41.3332V33.3332H41.3334C42.0378 33.3431 42.6857 32.7043 42.6857 31.9998C42.6857 31.2953 42.0378 30.6565 41.3334 30.6665H33.3334V22.6665C33.3417 21.9562 32.6894 21.3065 31.9792 21.3175H31.9792Z" fill="white"/>
</svg>
