        <svg
          width="184"
          height="40"
          viewBox="0 0 184 40"
          fill="none"
          xmlns="http://www.w3.org/2000/svg"
        >
          <path d="M0 0H141L184 21L141 40H0V0Z" fill="#FC1010" />
          <path
            d="M23.3828 26.8535V29H13.4297V26.8535H23.3828ZM13.9492 9.09375V29H11.3105V9.09375H13.9492ZM32.1602 29.2734C31.1302 29.2734 30.196 29.1003 29.3574 28.7539C28.528 28.3984 27.8125 27.9017 27.2109 27.2637C26.6185 26.6257 26.1628 25.8691 25.8438 24.9941C25.5247 24.1191 25.3652 23.1621 25.3652 22.123V21.5488C25.3652 20.3457 25.543 19.2747 25.8984 18.3359C26.2539 17.388 26.737 16.5859 27.3477 15.9297C27.9583 15.2734 28.651 14.7767 29.4258 14.4395C30.2005 14.1022 31.0026 13.9336 31.832 13.9336C32.8893 13.9336 33.8008 14.1159 34.5664 14.4805C35.3411 14.8451 35.9746 15.3555 36.4668 16.0117C36.959 16.6589 37.3236 17.4245 37.5605 18.3086C37.7975 19.1836 37.916 20.1406 37.916 21.1797V22.3145H26.8691V20.25H35.3867V20.0586C35.3503 19.4023 35.2135 18.7643 34.9766 18.1445C34.7487 17.5247 34.3841 17.0143 33.8828 16.6133C33.3815 16.2122 32.6979 16.0117 31.832 16.0117C31.2578 16.0117 30.7292 16.1348 30.2461 16.3809C29.763 16.6178 29.3483 16.9733 29.002 17.4473C28.6556 17.9212 28.3867 18.5 28.1953 19.1836C28.0039 19.8672 27.9082 20.6556 27.9082 21.5488V22.123C27.9082 22.8249 28.0039 23.4857 28.1953 24.1055C28.3958 24.7161 28.6829 25.2539 29.0566 25.7188C29.4395 26.1836 29.8997 26.5482 30.4375 26.8125C30.9844 27.0768 31.6042 27.209 32.2969 27.209C33.1901 27.209 33.9466 27.0267 34.5664 26.6621C35.1862 26.2975 35.7285 25.8099 36.1934 25.1992L37.7246 26.416C37.4056 26.8991 37 27.3594 36.5078 27.7969C36.0156 28.2344 35.4095 28.5898 34.6895 28.8633C33.9785 29.1367 33.1354 29.2734 32.1602 29.2734ZM47.0625 14.207V16.1484H39.0645V14.207H47.0625ZM41.7715 10.6113H44.3008V25.3359C44.3008 25.8372 44.3783 26.2155 44.5332 26.4707C44.6882 26.7259 44.8887 26.8945 45.1348 26.9766C45.3809 27.0586 45.6452 27.0996 45.9277 27.0996C46.1374 27.0996 46.3561 27.0814 46.584 27.0449C46.821 26.9993 46.9987 26.9629 47.1172 26.9355L47.1309 29C46.9303 29.0638 46.666 29.123 46.3379 29.1777C46.0189 29.2415 45.6315 29.2734 45.1758 29.2734C44.556 29.2734 43.9863 29.1504 43.4668 28.9043C42.9473 28.6582 42.5326 28.248 42.2227 27.6738C41.9219 27.0905 41.7715 26.3066 41.7715 25.3223V10.6113ZM52.5859 8V9.75C52.5859 10.2969 52.4902 10.8757 52.2988 11.4863C52.1165 12.0879 51.8477 12.6712 51.4922 13.2363C51.1367 13.7923 50.7083 14.2799 50.207 14.6992L48.7578 13.7012C49.1862 13.0996 49.5098 12.4844 49.7285 11.8555C49.9564 11.2174 50.0703 10.5293 50.0703 9.79102V8H52.5859ZM62.7168 25.0762C62.7168 24.7116 62.6348 24.3743 62.4707 24.0645C62.3158 23.7454 61.9922 23.4583 61.5 23.2031C61.0169 22.9388 60.2878 22.7109 59.3125 22.5195C58.4922 22.3464 57.7493 22.1413 57.084 21.9043C56.4277 21.6673 55.8672 21.3802 55.4023 21.043C54.9466 20.7057 54.5957 20.3092 54.3496 19.8535C54.1035 19.3978 53.9805 18.8646 53.9805 18.2539C53.9805 17.6706 54.1081 17.1191 54.3633 16.5996C54.6276 16.0801 54.9967 15.6198 55.4707 15.2188C55.9538 14.8177 56.5326 14.5033 57.207 14.2754C57.8815 14.0475 58.6335 13.9336 59.4629 13.9336C60.6478 13.9336 61.6595 14.1432 62.498 14.5625C63.3366 14.9818 63.9792 15.5423 64.4258 16.2441C64.8724 16.9368 65.0957 17.707 65.0957 18.5547H62.5664C62.5664 18.1445 62.4434 17.748 62.1973 17.3652C61.9603 16.9733 61.6094 16.6497 61.1445 16.3945C60.6888 16.1393 60.1283 16.0117 59.4629 16.0117C58.7611 16.0117 58.1914 16.1211 57.7539 16.3398C57.3255 16.5495 57.0111 16.8184 56.8105 17.1465C56.6191 17.4746 56.5234 17.821 56.5234 18.1855C56.5234 18.459 56.569 18.7051 56.6602 18.9238C56.7604 19.1335 56.9336 19.3294 57.1797 19.5117C57.4258 19.6849 57.7721 19.849 58.2188 20.0039C58.6654 20.1589 59.235 20.3138 59.9277 20.4688C61.14 20.7422 62.138 21.0703 62.9219 21.4531C63.7057 21.8359 64.2891 22.3053 64.6719 22.8613C65.0547 23.4173 65.2461 24.0918 65.2461 24.8848C65.2461 25.5319 65.1094 26.1243 64.8359 26.6621C64.5716 27.1999 64.1842 27.6647 63.6738 28.0566C63.1725 28.4395 62.571 28.7402 61.8691 28.959C61.1764 29.1686 60.3971 29.2734 59.5312 29.2734C58.2279 29.2734 57.125 29.041 56.2227 28.5762C55.3203 28.1113 54.6367 27.5098 54.1719 26.7715C53.707 26.0332 53.4746 25.2539 53.4746 24.4336H56.0176C56.054 25.1263 56.2546 25.6777 56.6191 26.0879C56.9837 26.4889 57.4303 26.776 57.959 26.9492C58.4876 27.1133 59.0117 27.1953 59.5312 27.1953C60.224 27.1953 60.8027 27.1042 61.2676 26.9219C61.7415 26.7396 62.1016 26.4889 62.3477 26.1699C62.5938 25.8509 62.7168 25.4863 62.7168 25.0762ZM86.5059 23.9688C86.5059 23.5039 86.4329 23.0938 86.2871 22.7383C86.1504 22.3737 85.9043 22.0456 85.5488 21.7539C85.2025 21.4622 84.7194 21.1842 84.0996 20.9199C83.4889 20.6556 82.7142 20.3867 81.7754 20.1133C80.791 19.8216 79.9023 19.498 79.1094 19.1426C78.3164 18.778 77.6374 18.3633 77.0723 17.8984C76.5072 17.4336 76.0742 16.9004 75.7734 16.2988C75.4727 15.6973 75.3223 15.0091 75.3223 14.2344C75.3223 13.4596 75.4818 12.7441 75.8008 12.0879C76.1198 11.4316 76.5755 10.862 77.168 10.3789C77.7695 9.88672 78.485 9.50391 79.3145 9.23047C80.1439 8.95703 81.069 8.82031 82.0898 8.82031C83.5846 8.82031 84.8516 9.10742 85.8906 9.68164C86.9388 10.2467 87.7363 10.9896 88.2832 11.9102C88.8301 12.8216 89.1035 13.7969 89.1035 14.8359H86.4785C86.4785 14.0885 86.319 13.4277 86 12.8535C85.681 12.2702 85.1979 11.8145 84.5508 11.4863C83.9036 11.1491 83.0833 10.9805 82.0898 10.9805C81.151 10.9805 80.3763 11.1217 79.7656 11.4043C79.1549 11.6868 78.6992 12.0697 78.3984 12.5527C78.1068 13.0358 77.9609 13.5872 77.9609 14.207C77.9609 14.6263 78.0475 15.0091 78.2207 15.3555C78.403 15.6927 78.681 16.0072 79.0547 16.2988C79.4375 16.5905 79.9206 16.8594 80.5039 17.1055C81.0964 17.3516 81.8027 17.5885 82.623 17.8164C83.7533 18.1354 84.7285 18.4909 85.5488 18.8828C86.3691 19.2747 87.0436 19.7168 87.5723 20.209C88.11 20.6921 88.5065 21.2435 88.7617 21.8633C89.026 22.474 89.1582 23.1667 89.1582 23.9414C89.1582 24.7526 88.9941 25.4863 88.666 26.1426C88.3379 26.7988 87.8685 27.3594 87.2578 27.8242C86.6471 28.2891 85.9134 28.6491 85.0566 28.9043C84.209 29.1504 83.2611 29.2734 82.2129 29.2734C81.2923 29.2734 80.3854 29.1458 79.4922 28.8906C78.6081 28.6354 77.8014 28.2526 77.0723 27.7422C76.3522 27.2318 75.7734 26.6029 75.3359 25.8555C74.9076 25.099 74.6934 24.224 74.6934 23.2305H77.3184C77.3184 23.9141 77.4505 24.502 77.7148 24.9941C77.9792 25.4772 78.3392 25.8783 78.7949 26.1973C79.2598 26.5163 79.7839 26.7533 80.3672 26.9082C80.9596 27.054 81.5749 27.127 82.2129 27.127C83.1335 27.127 83.9128 26.9993 84.5508 26.7441C85.1888 26.4889 85.6719 26.1243 86 25.6504C86.3372 25.1764 86.5059 24.6159 86.5059 23.9688ZM98.332 14.207V16.1484H90.334V14.207H98.332ZM93.041 10.6113H95.5703V25.3359C95.5703 25.8372 95.6478 26.2155 95.8027 26.4707C95.9577 26.7259 96.1582 26.8945 96.4043 26.9766C96.6504 27.0586 96.9147 27.0996 97.1973 27.0996C97.4069 27.0996 97.6257 27.0814 97.8535 27.0449C98.0905 26.9993 98.2682 26.9629 98.3867 26.9355L98.4004 29C98.1999 29.0638 97.9355 29.123 97.6074 29.1777C97.2884 29.2415 96.901 29.2734 96.4453 29.2734C95.8255 29.2734 95.2559 29.1504 94.7363 28.9043C94.2168 28.6582 93.8021 28.248 93.4922 27.6738C93.1914 27.0905 93.041 26.3066 93.041 25.3223V10.6113ZM110.021 26.4707V18.8555C110.021 18.2721 109.903 17.7663 109.666 17.3379C109.438 16.9004 109.092 16.5632 108.627 16.3262C108.162 16.0892 107.588 15.9707 106.904 15.9707C106.266 15.9707 105.706 16.0801 105.223 16.2988C104.749 16.5176 104.375 16.8047 104.102 17.1602C103.837 17.5156 103.705 17.8984 103.705 18.3086H101.176C101.176 17.7799 101.312 17.2559 101.586 16.7363C101.859 16.2168 102.251 15.7474 102.762 15.3281C103.281 14.8997 103.901 14.5625 104.621 14.3164C105.35 14.0612 106.161 13.9336 107.055 13.9336C108.13 13.9336 109.078 14.1159 109.898 14.4805C110.728 14.8451 111.375 15.3965 111.84 16.1348C112.314 16.8639 112.551 17.7799 112.551 18.8828V25.7734C112.551 26.2656 112.592 26.7897 112.674 27.3457C112.765 27.9017 112.897 28.3802 113.07 28.7812V29H110.432C110.304 28.7083 110.204 28.321 110.131 27.8379C110.058 27.3457 110.021 26.89 110.021 26.4707ZM110.459 20.0312L110.486 21.8086H107.93C107.21 21.8086 106.567 21.8678 106.002 21.9863C105.437 22.0957 104.963 22.2643 104.58 22.4922C104.197 22.7201 103.906 23.0072 103.705 23.3535C103.505 23.6908 103.404 24.0872 103.404 24.543C103.404 25.0078 103.509 25.4316 103.719 25.8145C103.928 26.1973 104.243 26.5026 104.662 26.7305C105.09 26.9492 105.615 27.0586 106.234 27.0586C107.009 27.0586 107.693 26.8945 108.285 26.5664C108.878 26.2383 109.347 25.8372 109.693 25.3633C110.049 24.8893 110.24 24.429 110.268 23.9824L111.348 25.1992C111.284 25.582 111.111 26.0059 110.828 26.4707C110.546 26.9355 110.167 27.3822 109.693 27.8105C109.229 28.2298 108.673 28.5807 108.025 28.8633C107.387 29.1367 106.667 29.2734 105.865 29.2734C104.863 29.2734 103.983 29.0775 103.227 28.6855C102.479 28.2936 101.896 27.7695 101.477 27.1133C101.066 26.4479 100.861 25.7051 100.861 24.8848C100.861 24.0918 101.016 23.3945 101.326 22.793C101.636 22.1823 102.083 21.6764 102.666 21.2754C103.249 20.8652 103.951 20.5553 104.771 20.3457C105.592 20.1361 106.508 20.0312 107.52 20.0312H110.459ZM119.059 16.5312V29H116.529V14.207H118.99L119.059 16.5312ZM123.68 14.125L123.666 16.4766C123.456 16.431 123.256 16.4036 123.064 16.3945C122.882 16.3763 122.673 16.3672 122.436 16.3672C121.852 16.3672 121.337 16.4583 120.891 16.6406C120.444 16.8229 120.066 17.0781 119.756 17.4062C119.446 17.7344 119.2 18.1263 119.018 18.582C118.844 19.0286 118.73 19.5208 118.676 20.0586L117.965 20.4688C117.965 19.5755 118.051 18.737 118.225 17.9531C118.407 17.1693 118.685 16.4766 119.059 15.875C119.432 15.2643 119.906 14.7904 120.48 14.4531C121.064 14.1068 121.757 13.9336 122.559 13.9336C122.741 13.9336 122.951 13.9564 123.188 14.002C123.424 14.0384 123.589 14.0794 123.68 14.125ZM132.895 14.207V16.1484H124.896V14.207H132.895ZM127.604 10.6113H130.133V25.3359C130.133 25.8372 130.21 26.2155 130.365 26.4707C130.52 26.7259 130.721 26.8945 130.967 26.9766C131.213 27.0586 131.477 27.0996 131.76 27.0996C131.969 27.0996 132.188 27.0814 132.416 27.0449C132.653 26.9993 132.831 26.9629 132.949 26.9355L132.963 29C132.762 29.0638 132.498 29.123 132.17 29.1777C131.851 29.2415 131.464 29.2734 131.008 29.2734C130.388 29.2734 129.818 29.1504 129.299 28.9043C128.779 28.6582 128.365 28.248 128.055 27.6738C127.754 27.0905 127.604 26.3066 127.604 25.3223V10.6113Z"
            fill="white"
          />
        </svg>
