<svg width="40" height="40" viewBox="0 0 40 40" fill="none" xmlns="http://www.w3.org/2000/svg">
<path d="M20 22C19.2389 21.9929 18.4933 22.1725 17.8636 22.5146C17.2339 22.8567 16.7504 23.345 16.478 23.9136C16.2057 24.4822 16.1577 25.104 16.3404 25.6951C16.5231 26.2863 16.9278 26.8184 17.5 27.22V30C17.5 30.5304 17.7634 31.0391 18.2322 31.4142C18.7011 31.7893 19.337 32 20 32C20.663 32 21.2989 31.7893 21.7678 31.4142C22.2366 31.0391 22.5 30.5304 22.5 30V27.22C23.0722 26.8184 23.4769 26.2863 23.6596 25.6951C23.8423 25.104 23.7943 24.4822 23.522 23.9136C23.2496 23.345 22.7661 22.8567 22.1364 22.5146C21.5067 22.1725 20.7611 21.9929 20 22ZM32.5 14V10C32.5 7.34784 31.183 4.8043 28.8388 2.92893C26.4946 1.05357 23.3152 0 20 0C16.6848 0 13.5054 1.05357 11.1612 2.92893C8.81696 4.8043 7.5 7.34784 7.5 10V14C5.51088 14 3.60322 14.6321 2.1967 15.7574C0.790177 16.8826 0 18.4087 0 20V34C0 35.5913 0.790177 37.1174 2.1967 38.2426C3.60322 39.3679 5.51088 40 7.5 40H32.5C34.4891 40 36.3968 39.3679 37.8033 38.2426C39.2098 37.1174 40 35.5913 40 34V20C40 18.4087 39.2098 16.8826 37.8033 15.7574C36.3968 14.6321 34.4891 14 32.5 14ZM12.5 10C12.5 8.4087 13.2902 6.88258 14.6967 5.75736C16.1032 4.63214 18.0109 4 20 4C21.9891 4 23.8968 4.63214 25.3033 5.75736C26.7098 6.88258 27.5 8.4087 27.5 10V14H12.5V10ZM35 34C35 34.5304 34.7366 35.0391 34.2678 35.4142C33.7989 35.7893 33.163 36 32.5 36H7.5C6.83696 36 6.20107 35.7893 5.73223 35.4142C5.26339 35.0391 5 34.5304 5 34V20C5 19.4696 5.26339 18.9609 5.73223 18.5858C6.20107 18.2107 6.83696 18 7.5 18H32.5C33.163 18 33.7989 18.2107 34.2678 18.5858C34.7366 18.9609 35 19.4696 35 20V34Z" fill="black" fill-opacity="0.53"/>
</svg>
