<svg width="49" height="49" viewBox="0 0 49 49" fill="none" xmlns="http://www.w3.org/2000/svg">
<path d="M34.4489 10.9674C32.3219 11.5824 30.2929 12.5064 28.1649 13.1164C23.9959 14.3114 19.5869 14.2694 15.2879 14.8364C10.9879 15.4034 6.51792 16.7414 3.65892 20.0014C-0.0570807 24.2384 -0.0180805 30.9414 2.82792 35.8054C5.67392 40.6694 10.8249 43.8384 16.2229 45.4584C20.6849 46.7974 25.4719 47.1964 30.0329 46.2484C34.5939 45.3004 38.9119 42.9554 41.9239 39.4024C44.0289 36.9194 45.4509 33.9314 46.6289 30.8974C48.1319 27.0254 49.2889 22.8324 48.5409 18.7464C47.2439 11.6674 40.9039 9.10138 34.4489 10.9674Z" fill="#D8E9F7"/>
<path d="M42.911 11.5892L46.037 7.20417C46.522 6.52417 46.364 5.57917 45.683 5.09417L39.984 1.03117C39.304 0.546171 38.359 0.704171 37.874 1.38517L34.748 5.77017L42.911 11.5892ZM28.924 31.1112L23.125 34.0812L20.683 35.3372C20.073 35.6542 19.345 35.1372 19.45 34.4452L19.814 31.8982L20.753 25.2892L28.924 31.1112Z" fill="#C9D8EE"/>
<path d="M23.125 34.0803L20.683 35.3363C20.073 35.6533 19.345 35.1363 19.45 34.4443L19.814 31.8973C19.967 31.8733 20.119 31.8623 20.272 31.8623C21.646 31.8613 22.808 32.8003 23.125 34.0803Z" fill="white"/>
<path d="M38.425 28.687C37.657 28.44 36.858 28.704 36.389 29.36L32.755 34.435C32.483 34.815 32.338 35.264 32.338 35.732V41.258H7.349V16.268H20.059C20.775 16.268 21.452 15.92 21.871 15.337L24.406 11.797C25.268 10.594 24.406 8.91699 22.926 8.91699H2.214C0.993 8.91699 0 9.90999 0 11.131V46.393C0 47.614 0.993 48.607 2.214 48.607H37.475C38.696 48.607 39.689 47.614 39.689 46.393V30.42C39.689 29.614 39.193 28.933 38.425 28.687ZM38.189 46.393C38.189 46.787 37.869 47.107 37.475 47.107H2.214C1.82 47.107 1.5 46.787 1.5 46.393V11.132C1.5 10.738 1.82 10.418 2.214 10.418H22.926C23.188 10.418 23.339 10.712 23.186 10.925L20.651 14.464C20.514 14.654 20.293 14.768 20.059 14.768H6.599C6.185 14.768 5.849 15.104 5.849 15.518V42.008C5.849 42.422 6.185 42.758 6.599 42.758H33.089C33.503 42.758 33.839 42.422 33.839 42.008V35.732C33.839 35.579 33.886 35.433 33.975 35.308L37.609 30.233C37.728 30.069 37.884 30.089 37.967 30.115C38.05 30.141 38.189 30.217 38.189 30.42V46.393Z" fill="#2F3F68"/>
<path d="M46.119 4.48238L40.419 0.419376C39.403 -0.304624 37.986 -0.0676246 37.263 0.948375L37.2 1.03738L20.168 24.8234C20.112 24.9234 20.033 25.0254 20.011 25.1814L18.709 34.3304C18.618 34.9314 18.869 35.5244 19.363 35.8794C19.856 36.2324 20.495 36.2794 21.026 36.0024L29.266 31.7764C29.366 31.7254 29.464 31.6134 29.553 31.5124C30.286 30.4884 25.881 36.6404 46.648 7.63838C47.372 6.62338 47.135 5.20738 46.119 4.48238ZM45.248 5.70338C45.59 5.94838 45.67 6.42538 45.426 6.76738L42.728 10.5364L35.794 5.59338L38.485 1.81938C38.729 1.47738 39.208 1.39638 39.549 1.64138L45.248 5.70338ZM34.913 6.80738L41.854 11.7564L28.748 30.0614L21.806 25.1124L34.913 6.80738ZM20.236 34.6594C20.182 34.6204 20.189 34.5744 20.193 34.5494L20.468 32.6194C21.197 32.6834 21.835 33.1014 22.183 33.7204L20.336 34.6704C20.325 34.6774 20.286 34.6974 20.236 34.6594ZM23.505 33.0454C22.932 31.9974 21.875 31.2864 20.677 31.1504L21.323 26.6134L27.485 31.0044L23.505 33.0454Z" fill="#2F3F68"/>
<path d="M29.684 22.7547L36.102 14.1337C36.35 13.8017 36.281 13.3317 35.948 13.0847C35.617 12.8377 35.145 12.9067 34.899 13.2387L28.481 21.8597C28.233 22.1917 28.302 22.6617 28.635 22.9087C28.964 23.1547 29.435 23.0897 29.684 22.7547Z" fill="#2F3F68"/>
</svg>
